<svg xmlns="http://www.w3.org/2000/svg" viewBox="0 0 64 64" fill="none">
  <!-- Background -->
  <rect width="64" height="64" rx="14" fill="#E0F7FA"/>
  <!-- Teal 'b' letter -->
  <rect x="7" y="7" width="9" height="44" rx="4.5" fill="#00ACC1"/>
  <path d="M16 19 A 13 12 0 1 1 16 39" stroke="#00ACC1" stroke-width="9" stroke-linecap="round" fill="none"/>
  <!-- Green pharmaceutical circle -->
  <circle cx="43" cy="32" r="17" fill="#43A047"/>
  <!-- Bowl of Hygieia (white, simplified for small size) -->
  <rect x="41" y="20" width="3" height="22" rx="1.5" fill="white"/>
  <path d="M44 25 Q50 25 50 30 Q50 35 44 35" stroke="white" stroke-width="2.5" fill="none" stroke-linecap="round"/>
  <path d="M41 35 Q35 37 35 42 Q35 46 41 46" stroke="white" stroke-width="2.5" fill="none" stroke-linecap="round"/>
  <rect x="36" y="40" width="14" height="3" rx="1.5" fill="white"/>
  <path d="M37 43 L50 43 L48 48 Q43 52 39 48 Z" fill="white"/>
</svg>
